<svg viewBox="0 0 1000 240" fill="none" xmlns="http://www.w3.org/2000/svg" role="img" aria-label="Commit Hover Maze">
  <style>
    .mono { font-family: ui-monospace, "SFMono-Regular", "SF Mono", Menlo, Consolas, monospace; }
    .bg { fill: #0D1117; }
    .card { fill: #161B22; stroke: #30363D; stroke-width: 1.5; }
    
    .wall-rect { fill: #101217; cursor: crosshair; }
    .path-rect { fill: #26A641; opacity: 0.7; cursor: crosshair; }
    .path-rect:hover { opacity: 1; fill: #39D353; }
    
    /* The core mechanics */
    .walls { pointer-events: auto; }
    .walls:hover ~ .game-over { opacity: 1; pointer-events: auto; }
    .goal:hover ~ .win { opacity: 1; pointer-events: auto; }
    
    .game-over { opacity: 0; transition: opacity 0.2s; pointer-events: none; }
    .win { opacity: 0; transition: opacity 0.2s; pointer-events: none; }
  </style>
  
  <rect width="1000" height="240" rx="8" class="bg"/>
  <rect x="48" y="10" width="904" height="220" rx="8" class="card"/>
  
  <text fill="#FFFFFF" class="mono" x="72" y="44" font-size="16" font-weight="800" letter-spacing="1">HOVER MAZE: NAVIGATE THE COMMITS</text>
  <text fill="#8B949E" class="mono" x="928" y="44" font-size="12" font-weight="600" text-anchor="end">TRACE FROM LEFT TO RIGHT WITHOUT TOUCHING WALLS</text>
  <line x1="72" y1="56" x2="928" y2="56" stroke="#30363D" stroke-width="1"/>

  <text fill="#58A6FF" class="mono" x="20" y="140" font-size="12" font-weight="bold" transform="rotate(-90, 20, 140)">START ➔</text>
  <text fill="#39D353" class="mono" x="970" y="140" font-size="12" font-weight="bold" transform="rotate(90, 970, 140)">GOAL</text>

  <!-- Render paths underneath so walls are on top for hover detection -->
  <g class="paths">
    <rect x="60" y="114" width="13" height="13" rx="2" class="path-rect" /><rect x="60" y="131" width="13" height="13" rx="2" class="path-rect" /><rect x="77" y="97" width="13" height="13" rx="2" class="path-rect" /><rect x="77" y="131" width="13" height="13" rx="2" class="path-rect" /><rect x="77" y="148" width="13" height="13" rx="2" class="path-rect" /><rect x="94" y="80" width="13" height="13" rx="2" class="path-rect" /><rect x="94" y="97" width="13" height="13" rx="2" class="path-rect" /><rect x="94" y="131" width="13" height="13" rx="2" class="path-rect" /><rect x="94" y="148" width="13" height="13" rx="2" class="path-rect" /><rect x="94" y="182" width="13" height="13" rx="2" class="path-rect" /><rect x="111" y="131" width="13" height="13" rx="2" class="path-rect" /><rect x="111" y="148" width="13" height="13" rx="2" class="path-rect" /><rect x="111" y="165" width="13" height="13" rx="2" class="path-rect" /><rect x="128" y="97" width="13" height="13" rx="2" class="path-rect" /><rect x="128" y="131" width="13" height="13" rx="2" class="path-rect" /><rect x="128" y="148" width="13" height="13" rx="2" class="path-rect" /><rect x="128" y="165" width="13" height="13" rx="2" class="path-rect" /><rect x="128" y="182" width="13" height="13" rx="2" class="path-rect" /><rect x="145" y="114" width="13" height="13" rx="2" class="path-rect" /><rect x="145" y="131" width="13" height="13" rx="2" class="path-rect" /><rect x="145" y="148" width="13" height="13" rx="2" class="path-rect" /><rect x="145" y="165" width="13" height="13" rx="2" class="path-rect" /><rect x="162" y="97" width="13" height="13" rx="2" class="path-rect" /><rect x="162" y="114" width="13" height="13" rx="2" class="path-rect" /><rect x="162" y="131" width="13" height="13" rx="2" class="path-rect" /><rect x="179" y="97" width="13" height="13" rx="2" class="path-rect" /><rect x="179" y="114" width="13" height="13" rx="2" class="path-rect" /><rect x="179" y="131" width="13" height="13" rx="2" class="path-rect" /><rect x="196" y="80" width="13" height="13" rx="2" class="path-rect" /><rect x="196" y="97" width="13" height="13" rx="2" class="path-rect" /><rect x="196" y="131" width="13" height="13" rx="2" class="path-rect" /><rect x="196" y="148" width="13" height="13" rx="2" class="path-rect" /><rect x="196" y="182" width="13" height="13" rx="2" class="path-rect" /><rect x="213" y="97" width="13" height="13" rx="2" class="path-rect" /><rect x="213" y="114" width="13" height="13" rx="2" class="path-rect" /><rect x="213" y="131" width="13" height="13" rx="2" class="path-rect" /><rect x="230" y="114" width="13" height="13" rx="2" class="path-rect" /><rect x="230" y="131" width="13" height="13" rx="2" class="path-rect" /><rect x="247" y="114" width="13" height="13" rx="2" class="path-rect" /><rect x="247" y="131" width="13" height="13" rx="2" class="path-rect" /><rect x="264" y="131" width="13" height="13" rx="2" class="path-rect" /><rect x="281" y="114" width="13" height="13" rx="2" class="path-rect" /><rect x="281" y="131" width="13" height="13" rx="2" class="path-rect" /><rect x="298" y="114" width="13" height="13" rx="2" class="path-rect" /><rect x="298" y="131" width="13" height="13" rx="2" class="path-rect" /><rect x="298" y="148" width="13" height="13" rx="2" class="path-rect" /><rect x="315" y="131" width="13" height="13" rx="2" class="path-rect" /><rect x="332" y="114" width="13" height="13" rx="2" class="path-rect" /><rect x="332" y="131" width="13" height="13" rx="2" class="path-rect" /><rect x="349" y="97" width="13" height="13" rx="2" class="path-rect" /><rect x="349" y="114" width="13" height="13" rx="2" class="path-rect" /><rect x="349" y="131" width="13" height="13" rx="2" class="path-rect" /><rect x="349" y="148" width="13" height="13" rx="2" class="path-rect" /><rect x="349" y="165" width="13" height="13" rx="2" class="path-rect" /><rect x="366" y="80" width="13" height="13" rx="2" class="path-rect" /><rect x="366" y="97" width="13" height="13" rx="2" class="path-rect" /><rect x="366" y="131" width="13" height="13" rx="2" class="path-rect" /><rect x="366" y="182" width="13" height="13" rx="2" class="path-rect" /><rect x="383" y="97" width="13" height="13" rx="2" class="path-rect" /><rect x="383" y="131" width="13" height="13" rx="2" class="path-rect" /><rect x="400" y="97" width="13" height="13" rx="2" class="path-rect" /><rect x="400" y="114" width="13" height="13" rx="2" class="path-rect" /><rect x="400" y="131" width="13" height="13" rx="2" class="path-rect" /><rect x="417" y="80" width="13" height="13" rx="2" class="path-rect" /><rect x="417" y="114" width="13" height="13" rx="2" class="path-rect" /><rect x="417" y="131" width="13" height="13" rx="2" class="path-rect" /><rect x="434" y="114" width="13" height="13" rx="2" class="path-rect" /><rect x="434" y="131" width="13" height="13" rx="2" class="path-rect" /><rect x="434" y="182" width="13" height="13" rx="2" class="path-rect" /><rect x="451" y="114" width="13" height="13" rx="2" class="path-rect" /><rect x="451" y="131" width="13" height="13" rx="2" class="path-rect" /><rect x="451" y="165" width="13" height="13" rx="2" class="path-rect" /><rect x="468" y="114" width="13" height="13" rx="2" class="path-rect" /><rect x="468" y="131" width="13" height="13" rx="2" class="path-rect" /><rect x="468" y="165" width="13" height="13" rx="2" class="path-rect" /><rect x="485" y="131" width="13" height="13" rx="2" class="path-rect" /><rect x="485" y="148" width="13" height="13" rx="2" class="path-rect" /><rect x="485" y="165" width="13" height="13" rx="2" class="path-rect" /><rect x="502" y="114" width="13" height="13" rx="2" class="path-rect" /><rect x="502" y="131" width="13" height="13" rx="2" class="path-rect" /><rect x="502" y="148" width="13" height="13" rx="2" class="path-rect" /><rect x="502" y="182" width="13" height="13" rx="2" class="path-rect" /><rect x="519" y="131" width="13" height="13" rx="2" class="path-rect" /><rect x="519" y="148" width="13" height="13" rx="2" class="path-rect" /><rect x="536" y="97" width="13" height="13" rx="2" class="path-rect" /><rect x="536" y="131" width="13" height="13" rx="2" class="path-rect" /><rect x="553" y="131" width="13" height="13" rx="2" class="path-rect" /><rect x="553" y="148" width="13" height="13" rx="2" class="path-rect" /><rect x="553" y="165" width="13" height="13" rx="2" class="path-rect" /><rect x="553" y="182" width="13" height="13" rx="2" class="path-rect" /><rect x="570" y="80" width="13" height="13" rx="2" class="path-rect" /><rect x="570" y="131" width="13" height="13" rx="2" class="path-rect" /><rect x="570" y="148" width="13" height="13" rx="2" class="path-rect" /><rect x="587" y="97" width="13" height="13" rx="2" class="path-rect" /><rect x="587" y="131" width="13" height="13" rx="2" class="path-rect" /><rect x="587" y="148" width="13" height="13" rx="2" class="path-rect" /><rect x="587" y="182" width="13" height="13" rx="2" class="path-rect" /><rect x="604" y="114" width="13" height="13" rx="2" class="path-rect" /><rect x="604" y="131" width="13" height="13" rx="2" class="path-rect" /><rect x="621" y="97" width="13" height="13" rx="2" class="path-rect" /><rect x="621" y="114" width="13" height="13" rx="2" class="path-rect" /><rect x="621" y="131" width="13" height="13" rx="2" class="path-rect" /><rect x="638" y="114" width="13" height="13" rx="2" class="path-rect" /><rect x="638" y="131" width="13" height="13" rx="2" class="path-rect" /><rect x="638" y="182" width="13" height="13" rx="2" class="path-rect" /><rect x="655" y="114" width="13" height="13" rx="2" class="path-rect" /><rect x="655" y="131" width="13" height="13" rx="2" class="path-rect" /><rect x="672" y="114" width="13" height="13" rx="2" class="path-rect" /><rect x="672" y="131" width="13" height="13" rx="2" class="path-rect" /><rect x="672" y="165" width="13" height="13" rx="2" class="path-rect" /><rect x="672" y="182" width="13" height="13" rx="2" class="path-rect" /><rect x="689" y="80" width="13" height="13" rx="2" class="path-rect" /><rect x="689" y="114" width="13" height="13" rx="2" class="path-rect" /><rect x="689" y="131" width="13" height="13" rx="2" class="path-rect" /><rect x="706" y="114" width="13" height="13" rx="2" class="path-rect" /><rect x="706" y="131" width="13" height="13" rx="2" class="path-rect" /><rect x="723" y="114" width="13" height="13" rx="2" class="path-rect" /><rect x="723" y="131" width="13" height="13" rx="2" class="path-rect" /><rect x="723" y="165" width="13" height="13" rx="2" class="path-rect" /><rect x="723" y="182" width="13" height="13" rx="2" class="path-rect" /><rect x="740" y="97" width="13" height="13" rx="2" class="path-rect" /><rect x="740" y="114" width="13" height="13" rx="2" class="path-rect" /><rect x="740" y="131" width="13" height="13" rx="2" class="path-rect" /><rect x="757" y="97" width="13" height="13" rx="2" class="path-rect" /><rect x="757" y="114" width="13" height="13" rx="2" class="path-rect" /><rect x="757" y="131" width="13" height="13" rx="2" class="path-rect" /><rect x="757" y="182" width="13" height="13" rx="2" class="path-rect" /><rect x="774" y="97" width="13" height="13" rx="2" class="path-rect" /><rect x="774" y="114" width="13" height="13" rx="2" class="path-rect" /><rect x="774" y="131" width="13" height="13" rx="2" class="path-rect" /><rect x="791" y="97" width="13" height="13" rx="2" class="path-rect" /><rect x="791" y="114" width="13" height="13" rx="2" class="path-rect" /><rect x="791" y="131" width="13" height="13" rx="2" class="path-rect" /><rect x="791" y="165" width="13" height="13" rx="2" class="path-rect" /><rect x="808" y="97" width="13" height="13" rx="2" class="path-rect" /><rect x="808" y="114" width="13" height="13" rx="2" class="path-rect" /><rect x="808" y="131" width="13" height="13" rx="2" class="path-rect" /><rect x="825" y="97" width="13" height="13" rx="2" class="path-rect" /><rect x="825" y="131" width="13" height="13" rx="2" class="path-rect" /><rect x="825" y="148" width="13" height="13" rx="2" class="path-rect" /><rect x="825" y="165" width="13" height="13" rx="2" class="path-rect" /><rect x="842" y="97" width="13" height="13" rx="2" class="path-rect" /><rect x="842" y="114" width="13" height="13" rx="2" class="path-rect" /><rect x="842" y="131" width="13" height="13" rx="2" class="path-rect" /><rect x="842" y="148" width="13" height="13" rx="2" class="path-rect" /><rect x="859" y="97" width="13" height="13" rx="2" class="path-rect" /><rect x="859" y="114" width="13" height="13" rx="2" class="path-rect" /><rect x="859" y="131" width="13" height="13" rx="2" class="path-rect" /><rect x="859" y="148" width="13" height="13" rx="2" class="path-rect" /><rect x="876" y="114" width="13" height="13" rx="2" class="path-rect" /><rect x="876" y="131" width="13" height="13" rx="2" class="path-rect" /><rect x="876" y="148" width="13" height="13" rx="2" class="path-rect" /><rect x="893" y="114" width="13" height="13" rx="2" class="path-rect" /><rect x="893" y="131" width="13" height="13" rx="2" class="path-rect" /><rect x="910" y="114" width="13" height="13" rx="2" class="path-rect" /><rect x="910" y="131" width="13" height="13" rx="2" class="path-rect" /><rect x="927" y="114" width="13" height="13" rx="2" class="path-rect" /><rect x="927" y="131" width="13" height="13" rx="2" class="path-rect" />
  </g>
  
  <g class="walls">
    <!-- Huge invisible walls on top and bottom to prevent cheating -->
    <rect x="48" y="56" width="904" height="22" fill="transparent" class="wall-rect" />
    <rect x="48" y="200" width="904" height="30" fill="transparent" class="wall-rect" />
    
    <rect x="60" y="80" width="13" height="13" rx="2" class="wall-rect" /><rect x="60" y="97" width="13" height="13" rx="2" class="wall-rect" /><rect x="60" y="148" width="13" height="13" rx="2" class="wall-rect" /><rect x="60" y="165" width="13" height="13" rx="2" class="wall-rect" /><rect x="60" y="182" width="13" height="13" rx="2" class="wall-rect" /><rect x="77" y="80" width="13" height="13" rx="2" class="wall-rect" /><rect x="77" y="114" width="13" height="13" rx="2" class="wall-rect" /><rect x="77" y="165" width="13" height="13" rx="2" class="wall-rect" /><rect x="77" y="182" width="13" height="13" rx="2" class="wall-rect" /><rect x="94" y="114" width="13" height="13" rx="2" class="wall-rect" /><rect x="94" y="165" width="13" height="13" rx="2" class="wall-rect" /><rect x="111" y="80" width="13" height="13" rx="2" class="wall-rect" /><rect x="111" y="97" width="13" height="13" rx="2" class="wall-rect" /><rect x="111" y="114" width="13" height="13" rx="2" class="wall-rect" /><rect x="111" y="182" width="13" height="13" rx="2" class="wall-rect" /><rect x="128" y="80" width="13" height="13" rx="2" class="wall-rect" /><rect x="128" y="114" width="13" height="13" rx="2" class="wall-rect" /><rect x="145" y="80" width="13" height="13" rx="2" class="wall-rect" /><rect x="145" y="97" width="13" height="13" rx="2" class="wall-rect" /><rect x="145" y="182" width="13" height="13" rx="2" class="wall-rect" /><rect x="162" y="80" width="13" height="13" rx="2" class="wall-rect" /><rect x="162" y="148" width="13" height="13" rx="2" class="wall-rect" /><rect x="162" y="165" width="13" height="13" rx="2" class="wall-rect" /><rect x="162" y="182" width="13" height="13" rx="2" class="wall-rect" /><rect x="179" y="80" width="13" height="13" rx="2" class="wall-rect" /><rect x="179" y="148" width="13" height="13" rx="2" class="wall-rect" /><rect x="179" y="165" width="13" height="13" rx="2" class="wall-rect" /><rect x="179" y="182" width="13" height="13" rx="2" class="wall-rect" /><rect x="196" y="114" width="13" height="13" rx="2" class="wall-rect" /><rect x="196" y="165" width="13" height="13" rx="2" class="wall-rect" /><rect x="213" y="80" width="13" height="13" rx="2" class="wall-rect" /><rect x="213" y="148" width="13" height="13" rx="2" class="wall-rect" /><rect x="213" y="165" width="13" height="13" rx="2" class="wall-rect" /><rect x="213" y="182" width="13" height="13" rx="2" class="wall-rect" /><rect x="230" y="80" width="13" height="13" rx="2" class="wall-rect" /><rect x="230" y="97" width="13" height="13" rx="2" class="wall-rect" /><rect x="230" y="148" width="13" height="13" rx="2" class="wall-rect" /><rect x="230" y="165" width="13" height="13" rx="2" class="wall-rect" /><rect x="230" y="182" width="13" height="13" rx="2" class="wall-rect" /><rect x="247" y="80" width="13" height="13" rx="2" class="wall-rect" /><rect x="247" y="97" width="13" height="13" rx="2" class="wall-rect" /><rect x="247" y="148" width="13" height="13" rx="2" class="wall-rect" /><rect x="247" y="165" width="13" height="13" rx="2" class="wall-rect" /><rect x="247" y="182" width="13" height="13" rx="2" class="wall-rect" /><rect x="264" y="80" width="13" height="13" rx="2" class="wall-rect" /><rect x="264" y="97" width="13" height="13" rx="2" class="wall-rect" /><rect x="264" y="114" width="13" height="13" rx="2" class="wall-rect" /><rect x="264" y="148" width="13" height="13" rx="2" class="wall-rect" /><rect x="264" y="165" width="13" height="13" rx="2" class="wall-rect" /><rect x="264" y="182" width="13" height="13" rx="2" class="wall-rect" /><rect x="281" y="80" width="13" height="13" rx="2" class="wall-rect" /><rect x="281" y="97" width="13" height="13" rx="2" class="wall-rect" /><rect x="281" y="148" width="13" height="13" rx="2" class="wall-rect" /><rect x="281" y="165" width="13" height="13" rx="2" class="wall-rect" /><rect x="281" y="182" width="13" height="13" rx="2" class="wall-rect" /><rect x="298" y="80" width="13" height="13" rx="2" class="wall-rect" /><rect x="298" y="97" width="13" height="13" rx="2" class="wall-rect" /><rect x="298" y="165" width="13" height="13" rx="2" class="wall-rect" /><rect x="298" y="182" width="13" height="13" rx="2" class="wall-rect" /><rect x="315" y="80" width="13" height="13" rx="2" class="wall-rect" /><rect x="315" y="97" width="13" height="13" rx="2" class="wall-rect" /><rect x="315" y="114" width="13" height="13" rx="2" class="wall-rect" /><rect x="315" y="148" width="13" height="13" rx="2" class="wall-rect" /><rect x="315" y="165" width="13" height="13" rx="2" class="wall-rect" /><rect x="315" y="182" width="13" height="13" rx="2" class="wall-rect" /><rect x="332" y="80" width="13" height="13" rx="2" class="wall-rect" /><rect x="332" y="97" width="13" height="13" rx="2" class="wall-rect" /><rect x="332" y="148" width="13" height="13" rx="2" class="wall-rect" /><rect x="332" y="165" width="13" height="13" rx="2" class="wall-rect" /><rect x="332" y="182" width="13" height="13" rx="2" class="wall-rect" /><rect x="349" y="80" width="13" height="13" rx="2" class="wall-rect" /><rect x="349" y="182" width="13" height="13" rx="2" class="wall-rect" /><rect x="366" y="114" width="13" height="13" rx="2" class="wall-rect" /><rect x="366" y="148" width="13" height="13" rx="2" class="wall-rect" /><rect x="366" y="165" width="13" height="13" rx="2" class="wall-rect" /><rect x="383" y="80" width="13" height="13" rx="2" class="wall-rect" /><rect x="383" y="114" width="13" height="13" rx="2" class="wall-rect" /><rect x="383" y="148" width="13" height="13" rx="2" class="wall-rect" /><rect x="383" y="165" width="13" height="13" rx="2" class="wall-rect" /><rect x="383" y="182" width="13" height="13" rx="2" class="wall-rect" /><rect x="400" y="80" width="13" height="13" rx="2" class="wall-rect" /><rect x="400" y="148" width="13" height="13" rx="2" class="wall-rect" /><rect x="400" y="165" width="13" height="13" rx="2" class="wall-rect" /><rect x="400" y="182" width="13" height="13" rx="2" class="wall-rect" /><rect x="417" y="97" width="13" height="13" rx="2" class="wall-rect" /><rect x="417" y="148" width="13" height="13" rx="2" class="wall-rect" /><rect x="417" y="165" width="13" height="13" rx="2" class="wall-rect" /><rect x="417" y="182" width="13" height="13" rx="2" class="wall-rect" /><rect x="434" y="80" width="13" height="13" rx="2" class="wall-rect" /><rect x="434" y="97" width="13" height="13" rx="2" class="wall-rect" /><rect x="434" y="148" width="13" height="13" rx="2" class="wall-rect" /><rect x="434" y="165" width="13" height="13" rx="2" class="wall-rect" /><rect x="451" y="80" width="13" height="13" rx="2" class="wall-rect" /><rect x="451" y="97" width="13" height="13" rx="2" class="wall-rect" /><rect x="451" y="148" width="13" height="13" rx="2" class="wall-rect" /><rect x="451" y="182" width="13" height="13" rx="2" class="wall-rect" /><rect x="468" y="80" width="13" height="13" rx="2" class="wall-rect" /><rect x="468" y="97" width="13" height="13" rx="2" class="wall-rect" /><rect x="468" y="148" width="13" height="13" rx="2" class="wall-rect" /><rect x="468" y="182" width="13" height="13" rx="2" class="wall-rect" /><rect x="485" y="80" width="13" height="13" rx="2" class="wall-rect" /><rect x="485" y="97" width="13" height="13" rx="2" class="wall-rect" /><rect x="485" y="114" width="13" height="13" rx="2" class="wall-rect" /><rect x="485" y="182" width="13" height="13" rx="2" class="wall-rect" /><rect x="502" y="80" width="13" height="13" rx="2" class="wall-rect" /><rect x="502" y="97" width="13" height="13" rx="2" class="wall-rect" /><rect x="502" y="165" width="13" height="13" rx="2" class="wall-rect" /><rect x="519" y="80" width="13" height="13" rx="2" class="wall-rect" /><rect x="519" y="97" width="13" height="13" rx="2" class="wall-rect" /><rect x="519" y="114" width="13" height="13" rx="2" class="wall-rect" /><rect x="519" y="165" width="13" height="13" rx="2" class="wall-rect" /><rect x="519" y="182" width="13" height="13" rx="2" class="wall-rect" /><rect x="536" y="80" width="13" height="13" rx="2" class="wall-rect" /><rect x="536" y="114" width="13" height="13" rx="2" class="wall-rect" /><rect x="536" y="148" width="13" height="13" rx="2" class="wall-rect" /><rect x="536" y="165" width="13" height="13" rx="2" class="wall-rect" /><rect x="536" y="182" width="13" height="13" rx="2" class="wall-rect" /><rect x="553" y="80" width="13" height="13" rx="2" class="wall-rect" /><rect x="553" y="97" width="13" height="13" rx="2" class="wall-rect" /><rect x="553" y="114" width="13" height="13" rx="2" class="wall-rect" /><rect x="570" y="97" width="13" height="13" rx="2" class="wall-rect" /><rect x="570" y="114" width="13" height="13" rx="2" class="wall-rect" /><rect x="570" y="165" width="13" height="13" rx="2" class="wall-rect" /><rect x="570" y="182" width="13" height="13" rx="2" class="wall-rect" /><rect x="587" y="80" width="13" height="13" rx="2" class="wall-rect" /><rect x="587" y="114" width="13" height="13" rx="2" class="wall-rect" /><rect x="587" y="165" width="13" height="13" rx="2" class="wall-rect" /><rect x="604" y="80" width="13" height="13" rx="2" class="wall-rect" /><rect x="604" y="97" width="13" height="13" rx="2" class="wall-rect" /><rect x="604" y="148" width="13" height="13" rx="2" class="wall-rect" /><rect x="604" y="165" width="13" height="13" rx="2" class="wall-rect" /><rect x="604" y="182" width="13" height="13" rx="2" class="wall-rect" /><rect x="621" y="80" width="13" height="13" rx="2" class="wall-rect" /><rect x="621" y="148" width="13" height="13" rx="2" class="wall-rect" /><rect x="621" y="165" width="13" height="13" rx="2" class="wall-rect" /><rect x="621" y="182" width="13" height="13" rx="2" class="wall-rect" /><rect x="638" y="80" width="13" height="13" rx="2" class="wall-rect" /><rect x="638" y="97" width="13" height="13" rx="2" class="wall-rect" /><rect x="638" y="148" width="13" height="13" rx="2" class="wall-rect" /><rect x="638" y="165" width="13" height="13" rx="2" class="wall-rect" /><rect x="655" y="80" width="13" height="13" rx="2" class="wall-rect" /><rect x="655" y="97" width="13" height="13" rx="2" class="wall-rect" /><rect x="655" y="148" width="13" height="13" rx="2" class="wall-rect" /><rect x="655" y="165" width="13" height="13" rx="2" class="wall-rect" /><rect x="655" y="182" width="13" height="13" rx="2" class="wall-rect" /><rect x="672" y="80" width="13" height="13" rx="2" class="wall-rect" /><rect x="672" y="97" width="13" height="13" rx="2" class="wall-rect" /><rect x="672" y="148" width="13" height="13" rx="2" class="wall-rect" /><rect x="689" y="97" width="13" height="13" rx="2" class="wall-rect" /><rect x="689" y="148" width="13" height="13" rx="2" class="wall-rect" /><rect x="689" y="165" width="13" height="13" rx="2" class="wall-rect" /><rect x="689" y="182" width="13" height="13" rx="2" class="wall-rect" /><rect x="706" y="80" width="13" height="13" rx="2" class="wall-rect" /><rect x="706" y="97" width="13" height="13" rx="2" class="wall-rect" /><rect x="706" y="148" width="13" height="13" rx="2" class="wall-rect" /><rect x="706" y="165" width="13" height="13" rx="2" class="wall-rect" /><rect x="706" y="182" width="13" height="13" rx="2" class="wall-rect" /><rect x="723" y="80" width="13" height="13" rx="2" class="wall-rect" /><rect x="723" y="97" width="13" height="13" rx="2" class="wall-rect" /><rect x="723" y="148" width="13" height="13" rx="2" class="wall-rect" /><rect x="740" y="80" width="13" height="13" rx="2" class="wall-rect" /><rect x="740" y="148" width="13" height="13" rx="2" class="wall-rect" /><rect x="740" y="165" width="13" height="13" rx="2" class="wall-rect" /><rect x="740" y="182" width="13" height="13" rx="2" class="wall-rect" /><rect x="757" y="80" width="13" height="13" rx="2" class="wall-rect" /><rect x="757" y="148" width="13" height="13" rx="2" class="wall-rect" /><rect x="757" y="165" width="13" height="13" rx="2" class="wall-rect" /><rect x="774" y="80" width="13" height="13" rx="2" class="wall-rect" /><rect x="774" y="148" width="13" height="13" rx="2" class="wall-rect" /><rect x="774" y="165" width="13" height="13" rx="2" class="wall-rect" /><rect x="774" y="182" width="13" height="13" rx="2" class="wall-rect" /><rect x="791" y="80" width="13" height="13" rx="2" class="wall-rect" /><rect x="791" y="148" width="13" height="13" rx="2" class="wall-rect" /><rect x="791" y="182" width="13" height="13" rx="2" class="wall-rect" /><rect x="808" y="80" width="13" height="13" rx="2" class="wall-rect" /><rect x="808" y="148" width="13" height="13" rx="2" class="wall-rect" /><rect x="808" y="165" width="13" height="13" rx="2" class="wall-rect" /><rect x="808" y="182" width="13" height="13" rx="2" class="wall-rect" /><rect x="825" y="80" width="13" height="13" rx="2" class="wall-rect" /><rect x="825" y="114" width="13" height="13" rx="2" class="wall-rect" /><rect x="825" y="182" width="13" height="13" rx="2" class="wall-rect" /><rect x="842" y="80" width="13" height="13" rx="2" class="wall-rect" /><rect x="842" y="165" width="13" height="13" rx="2" class="wall-rect" /><rect x="842" y="182" width="13" height="13" rx="2" class="wall-rect" /><rect x="859" y="80" width="13" height="13" rx="2" class="wall-rect" /><rect x="859" y="165" width="13" height="13" rx="2" class="wall-rect" /><rect x="859" y="182" width="13" height="13" rx="2" class="wall-rect" /><rect x="876" y="80" width="13" height="13" rx="2" class="wall-rect" /><rect x="876" y="97" width="13" height="13" rx="2" class="wall-rect" /><rect x="876" y="165" width="13" height="13" rx="2" class="wall-rect" /><rect x="876" y="182" width="13" height="13" rx="2" class="wall-rect" /><rect x="893" y="80" width="13" height="13" rx="2" class="wall-rect" /><rect x="893" y="97" width="13" height="13" rx="2" class="wall-rect" /><rect x="893" y="148" width="13" height="13" rx="2" class="wall-rect" /><rect x="893" y="165" width="13" height="13" rx="2" class="wall-rect" /><rect x="893" y="182" width="13" height="13" rx="2" class="wall-rect" /><rect x="910" y="80" width="13" height="13" rx="2" class="wall-rect" /><rect x="910" y="97" width="13" height="13" rx="2" class="wall-rect" /><rect x="910" y="148" width="13" height="13" rx="2" class="wall-rect" /><rect x="910" y="165" width="13" height="13" rx="2" class="wall-rect" /><rect x="910" y="182" width="13" height="13" rx="2" class="wall-rect" /><rect x="927" y="80" width="13" height="13" rx="2" class="wall-rect" /><rect x="927" y="97" width="13" height="13" rx="2" class="wall-rect" /><rect x="927" y="148" width="13" height="13" rx="2" class="wall-rect" /><rect x="927" y="165" width="13" height="13" rx="2" class="wall-rect" /><rect x="927" y="182" width="13" height="13" rx="2" class="wall-rect" />
  </g>
  
  <!-- Goal node -->
  <rect x="944" y="120" width="20" height="40" fill="transparent" class="goal"/>

  <!-- Overlay Screens -->
  <g class="game-over">
    <rect x="48" y="57" width="904" height="172" rx="0" fill="rgba(255,0,0,0.9)" />
    <text x="500" y="140" fill="#FFFFFF" class="mono" font-size="32" font-weight="bold" text-anchor="middle">SYSTEM FAILURE / WALL TOUCHED</text>
    <text x="500" y="170" fill="#FFFFFF" class="mono" font-size="16" text-anchor="middle">Move mouse outside to reset.</text>
  </g>
  
  <g class="win">
    <rect x="48" y="57" width="904" height="172" rx="0" fill="rgba(38,166,65,0.9)" />
    <text x="500" y="140" fill="#FFFFFF" class="mono" font-size="32" font-weight="bold" text-anchor="middle">PAYLOAD DELIVERED / YOU WIN</text>
  </g>
</svg>