<svg viewBox="0 0 1000 520" fill="none" xmlns="http://www.w3.org/2000/svg" role="img" aria-label="Garv Profile Chess Arena">
  <style>
    .mono { font-family: ui-monospace, SFMono-Regular, "SF Mono", Menlo, Consolas, "Liberation Mono", monospace; }
    .bg { fill: #000000; }
    .card { fill: #111111; stroke: #30363D; stroke-width: 1.5; }
    
    .cyan { fill: #58A6FF; }
    .green { fill: #39D353; }
    .purple { fill: #BC8CFF; }
    .yellow { fill: #E3B341; }
    .gray { fill: #8B949E; }
    .white { fill: #FFFFFF; }
  </style>

  <rect width="1000" height="520" class="bg"/>
  <rect x="48" y="20" width="904" height="480" rx="8" class="card"/>

  <!-- Header -->
  <text fill="#FFFFFF" class="mono" x="72" y="52" font-size="16" font-weight="800" letter-spacing="1">CHESS ARENA: PLAYER (WHITE) VS GARV AI (BLACK) ♟️</text>
  <text fill="#8B949E" class="mono" x="928" y="52" font-size="12" font-weight="600" text-anchor="end">TURN-BASED GITHUB ACTION</text>
  <line x1="72" y1="62" x2="928" y2="62" stroke="#30363D" stroke-width="1"/>

  <!-- 8x8 Chess Board -->
  <g>
    <rect x="70" y="68" width="404" height="404" fill="#161B22" stroke="#30363D" stroke-width="2" rx="4"/>
    <rect x="72" y="70" width="50" height="50" fill="#252B33"/><text x="76" y="84" fill="#484F58" class="mono" font-size="10">8</text><rect x="122" y="70" width="50" height="50" fill="#111418"/><rect x="172" y="70" width="50" height="50" fill="#252B33"/><rect x="222" y="70" width="50" height="50" fill="#111418"/><rect x="272" y="70" width="50" height="50" fill="#252B33"/><rect x="322" y="70" width="50" height="50" fill="#111418"/><rect x="372" y="70" width="50" height="50" fill="#252B33"/><rect x="422" y="70" width="50" height="50" fill="#111418"/><rect x="72" y="120" width="50" height="50" fill="#111418"/><text x="76" y="134" fill="#484F58" class="mono" font-size="10">7</text><rect x="122" y="120" width="50" height="50" fill="#252B33"/><rect x="172" y="120" width="50" height="50" fill="#111418"/><rect x="222" y="120" width="50" height="50" fill="#252B33"/><rect x="272" y="120" width="50" height="50" fill="#111418"/><rect x="322" y="120" width="50" height="50" fill="#252B33"/><rect x="372" y="120" width="50" height="50" fill="#111418"/><rect x="422" y="120" width="50" height="50" fill="#252B33"/><rect x="72" y="170" width="50" height="50" fill="#252B33"/><text x="76" y="184" fill="#484F58" class="mono" font-size="10">6</text><rect x="122" y="170" width="50" height="50" fill="#111418"/><rect x="172" y="170" width="50" height="50" fill="#252B33"/><rect x="222" y="170" width="50" height="50" fill="#111418"/><rect x="272" y="170" width="50" height="50" fill="#252B33"/><rect x="322" y="170" width="50" height="50" fill="#111418"/><rect x="372" y="170" width="50" height="50" fill="#252B33"/><rect x="422" y="170" width="50" height="50" fill="#111418"/><rect x="72" y="220" width="50" height="50" fill="#111418"/><text x="76" y="234" fill="#484F58" class="mono" font-size="10">5</text><rect x="122" y="220" width="50" height="50" fill="#252B33"/><rect x="172" y="220" width="50" height="50" fill="#111418"/><rect x="222" y="220" width="50" height="50" fill="#252B33"/><rect x="272" y="220" width="50" height="50" fill="#111418"/><rect x="322" y="220" width="50" height="50" fill="#252B33"/><rect x="372" y="220" width="50" height="50" fill="#111418"/><rect x="422" y="220" width="50" height="50" fill="#252B33"/><rect x="72" y="270" width="50" height="50" fill="#252B33"/><text x="76" y="284" fill="#484F58" class="mono" font-size="10">4</text><rect x="122" y="270" width="50" height="50" fill="#111418"/><rect x="172" y="270" width="50" height="50" fill="#252B33"/><rect x="222" y="270" width="50" height="50" fill="#111418"/><rect x="272" y="270" width="50" height="50" fill="#252B33"/><rect x="322" y="270" width="50" height="50" fill="#111418"/><rect x="372" y="270" width="50" height="50" fill="#252B33"/><rect x="422" y="270" width="50" height="50" fill="#111418"/><rect x="72" y="320" width="50" height="50" fill="#111418"/><text x="76" y="334" fill="#484F58" class="mono" font-size="10">3</text><rect x="122" y="320" width="50" height="50" fill="#252B33"/><rect x="172" y="320" width="50" height="50" fill="#111418"/><rect x="222" y="320" width="50" height="50" fill="#252B33"/><rect x="272" y="320" width="50" height="50" fill="#111418"/><rect x="322" y="320" width="50" height="50" fill="#252B33"/><rect x="372" y="320" width="50" height="50" fill="#111418"/><rect x="422" y="320" width="50" height="50" fill="#252B33"/><rect x="72" y="370" width="50" height="50" fill="#252B33"/><text x="76" y="384" fill="#484F58" class="mono" font-size="10">2</text><rect x="122" y="370" width="50" height="50" fill="#111418"/><rect x="172" y="370" width="50" height="50" fill="#252B33"/><rect x="222" y="370" width="50" height="50" fill="#111418"/><rect x="272" y="370" width="50" height="50" fill="#252B33"/><rect x="322" y="370" width="50" height="50" fill="#111418"/><rect x="372" y="370" width="50" height="50" fill="#252B33"/><rect x="422" y="370" width="50" height="50" fill="#111418"/><rect x="72" y="420" width="50" height="50" fill="#111418"/><text x="116" y="466" fill="#484F58" class="mono" font-size="10">a</text><text x="76" y="434" fill="#484F58" class="mono" font-size="10">1</text><rect x="122" y="420" width="50" height="50" fill="#252B33"/><text x="166" y="466" fill="#484F58" class="mono" font-size="10">b</text><rect x="172" y="420" width="50" height="50" fill="#111418"/><text x="216" y="466" fill="#484F58" class="mono" font-size="10">c</text><rect x="222" y="420" width="50" height="50" fill="#252B33"/><text x="266" y="466" fill="#484F58" class="mono" font-size="10">d</text><rect x="272" y="420" width="50" height="50" fill="#111418"/><text x="316" y="466" fill="#484F58" class="mono" font-size="10">e</text><rect x="322" y="420" width="50" height="50" fill="#252B33"/><text x="366" y="466" fill="#484F58" class="mono" font-size="10">f</text><rect x="372" y="420" width="50" height="50" fill="#111418"/><text x="416" y="466" fill="#484F58" class="mono" font-size="10">g</text><rect x="422" y="420" width="50" height="50" fill="#252B33"/><text x="466" y="466" fill="#484F58" class="mono" font-size="10">h</text>
    <text x="97.0" y="108.0" fill="#58A6FF" font-size="34" text-anchor="middle">♜</text><text x="147.0" y="108.0" fill="#58A6FF" font-size="34" text-anchor="middle">♞</text><text x="197.0" y="108.0" fill="#58A6FF" font-size="34" text-anchor="middle">♝</text><text x="247.0" y="108.0" fill="#58A6FF" font-size="34" text-anchor="middle">♛</text><text x="297.0" y="108.0" fill="#58A6FF" font-size="34" text-anchor="middle">♚</text><text x="347.0" y="108.0" fill="#58A6FF" font-size="34" text-anchor="middle">♝</text><text x="397.0" y="108.0" fill="#58A6FF" font-size="34" text-anchor="middle">♞</text><text x="447.0" y="108.0" fill="#58A6FF" font-size="34" text-anchor="middle">♜</text><text x="97.0" y="158.0" fill="#58A6FF" font-size="34" text-anchor="middle">♟</text><text x="147.0" y="158.0" fill="#58A6FF" font-size="34" text-anchor="middle">♟</text><text x="197.0" y="158.0" fill="#58A6FF" font-size="34" text-anchor="middle">♟</text><text x="247.0" y="158.0" fill="#58A6FF" font-size="34" text-anchor="middle">♟</text><text x="297.0" y="158.0" fill="#58A6FF" font-size="34" text-anchor="middle">♟</text><text x="347.0" y="158.0" fill="#58A6FF" font-size="34" text-anchor="middle">♟</text><text x="397.0" y="158.0" fill="#58A6FF" font-size="34" text-anchor="middle">♟</text><text x="447.0" y="158.0" fill="#58A6FF" font-size="34" text-anchor="middle">♟</text><text x="97.0" y="408.0" fill="#FFFFFF" font-size="34" text-anchor="middle">♙</text><text x="147.0" y="408.0" fill="#FFFFFF" font-size="34" text-anchor="middle">♙</text><text x="197.0" y="408.0" fill="#FFFFFF" font-size="34" text-anchor="middle">♙</text><text x="247.0" y="408.0" fill="#FFFFFF" font-size="34" text-anchor="middle">♙</text><text x="297.0" y="408.0" fill="#FFFFFF" font-size="34" text-anchor="middle">♙</text><text x="347.0" y="408.0" fill="#FFFFFF" font-size="34" text-anchor="middle">♙</text><text x="397.0" y="408.0" fill="#FFFFFF" font-size="34" text-anchor="middle">♙</text><text x="447.0" y="408.0" fill="#FFFFFF" font-size="34" text-anchor="middle">♙</text><text x="97.0" y="458.0" fill="#FFFFFF" font-size="34" text-anchor="middle">♖</text><text x="147.0" y="458.0" fill="#FFFFFF" font-size="34" text-anchor="middle">♘</text><text x="197.0" y="458.0" fill="#FFFFFF" font-size="34" text-anchor="middle">♗</text><text x="247.0" y="458.0" fill="#FFFFFF" font-size="34" text-anchor="middle">♕</text><text x="297.0" y="458.0" fill="#FFFFFF" font-size="34" text-anchor="middle">♔</text><text x="347.0" y="458.0" fill="#FFFFFF" font-size="34" text-anchor="middle">♗</text><text x="397.0" y="458.0" fill="#FFFFFF" font-size="34" text-anchor="middle">♘</text><text x="447.0" y="458.0" fill="#FFFFFF" font-size="34" text-anchor="middle">♖</text>
  </g>

  <!-- Right Telemetry Panel (x=500) -->
  <g class="mono">
    <!-- Status Box -->
    <rect x="500" y="80" width="428" height="70" rx="6" fill="#161B22" stroke="#30363D" stroke-width="1"/>
    <text x="520" y="105" fill="#8B949E" font-size="12" font-weight="600">GAME STATUS</text>
    <text x="520" y="132" fill="#39D353" font-size="20" font-weight="900">YOUR TURN (WHITE)</text>
    
    <!-- Evaluator -->
    <rect x="810" y="95" width="100" height="40" rx="4" fill="#0D1117" stroke="#30363D"/>
    <text x="860" y="112" fill="#8B949E" font-size="10" text-anchor="middle">EVAL SCORE</text>
    <text x="860" y="128" fill="#58A6FF" font-size="14" font-weight="800" text-anchor="middle">+0.0</text>

    <!-- Telemetry Box -->
    <rect x="500" y="165" width="428" height="155" rx="6" fill="#161B22" stroke="#30363D" stroke-width="1"/>
    <text x="520" y="192" class="purple" font-size="13" font-weight="800">LAST ACTIVITY:</text>
    <text x="520" y="215" class="white" font-size="13" font-weight="600">Player: @System</text>
    <text x="520" y="238" class="yellow" font-size="13" font-weight="600">Last Move: Reset Game</text>

    <text x="520" y="275" class="cyan" font-size="13" font-weight="800">PIECE LEGEND:</text>
    <text x="520" y="298" fill="#FFFFFF" font-size="16"> White (You): ♙ ♘ ♗ ♖ ♕ ♔</text>
    <text x="730" y="298" fill="#58A6FF" font-size="16"> Black (AI): ♟ ♞ ♝ ♜ ♛ ♚</text>

    <!-- Instructions -->
    <rect x="500" y="335" width="428" height="135" rx="6" fill="#0D1117" stroke="#238636" stroke-width="1.5"/>
    <text x="520" y="362" fill="#39D353" font-size="14" font-weight="800">HOW TO PLAY:</text>
    <text x="520" y="388" fill="#C9D1D9" font-size="12">1. Scroll down to the LEGAL MOVES grid below.</text>
    <text x="520" y="410" fill="#C9D1D9" font-size="12">2. Click any move link (e.g. ▶ Play e2➔e4).</text>
    <text x="520" y="432" fill="#C9D1D9" font-size="12">3. Click "Submit new issue" on GitHub.</text>
    <text x="520" y="454" fill="#39D353" font-size="12" font-weight="bold">Garv's AI Bot will execute White &amp; Black counter in ~10s!</text>
  </g>
</svg>