<svg viewBox="0 0 1000 480" fill="none" xmlns="http://www.w3.org/2000/svg" role="img" aria-label="Contribution activity over the last 31 days">
  <style>
    :root { --ink:#000000; }
    .mono { font-family:ui-monospace,"SFMono-Regular","SF Mono",Menlo,Consolas,"Liberation Mono",monospace; fill:var(--ink); }
    .panel,.rule { fill:none; stroke:var(--ink); stroke-width:1; }
    .grid { stroke:var(--ink); stroke-width:1; opacity:.22; stroke-dasharray:3 6; }
    .area { fill:var(--ink); opacity:.13; }
    .line { fill:none; stroke:var(--ink); stroke-width:3; stroke-linejoin:round; stroke-linecap:round; }
    .dot { fill:var(--ink); }
    .sweep { animation:sweep 1.2s cubic-bezier(.4,0,.2,1) forwards; }
    @keyframes sweep { from { clip-path:inset(0 100% 0 0); } to { clip-path:inset(0 0 0 0); } }
    @media (prefers-reduced-motion:reduce) { .sweep { animation:none; } }
  </style>
  <rect class="panel" x="24" y="20" width="952" height="440" rx="3"/>

  <g class="mono">
    <text x="52" y="64" font-size="24" font-weight="700" letter-spacing="3">CONTRIBUTION TELEMETRY</text>
    <text x="948" y="64" font-size="15" letter-spacing="2" text-anchor="end" opacity=".8">LAST 31 DAYS</text>
    <line class="rule" x1="52" y1="84" x2="948" y2="84"/>

    <line class="grid" x1="76" y1="120" x2="948" y2="120"/>
    <line class="grid" x1="76" y1="250" x2="948" y2="250"/>
    <line class="rule" x1="76" y1="380" x2="948" y2="380"/>

    <text x="66" y="126" font-size="17" text-anchor="end" opacity=".8">23</text>
    <text x="66" y="386" font-size="17" text-anchor="end" opacity=".8">0</text>

    <g class="sweep">
      <path class="area" d="M76.0,176.5 L105.1,176.5 L134.1,221.7 L163.2,142.6 L192.3,346.1 L221.3,357.4 L250.4,334.8 L279.5,334.8 L308.5,278.3 L337.6,368.7 L366.7,380.0 L395.7,357.4 L424.8,380.0 L453.9,346.1 L482.9,368.7 L512.0,357.4 L541.1,357.4 L570.1,334.8 L599.2,176.5 L628.3,300.9 L657.3,334.8 L686.4,334.8 L715.5,368.7 L744.5,187.8 L773.6,380.0 L802.7,244.3 L831.7,300.9 L860.8,120.0 L889.9,278.3 L918.9,334.8 L948.0,380.0 L948,380 L76,380 Z"/>
      <path class="line" d="M76.0,176.5 L105.1,176.5 L134.1,221.7 L163.2,142.6 L192.3,346.1 L221.3,357.4 L250.4,334.8 L279.5,334.8 L308.5,278.3 L337.6,368.7 L366.7,380.0 L395.7,357.4 L424.8,380.0 L453.9,346.1 L482.9,368.7 L512.0,357.4 L541.1,357.4 L570.1,334.8 L599.2,176.5 L628.3,300.9 L657.3,334.8 L686.4,334.8 L715.5,368.7 L744.5,187.8 L773.6,380.0 L802.7,244.3 L831.7,300.9 L860.8,120.0 L889.9,278.3 L918.9,334.8 L948.0,380.0"/>
      <g class="dot"><circle cx="76.0" cy="176.5" r="3.4"/><circle cx="105.1" cy="176.5" r="3.4"/><circle cx="134.1" cy="221.7" r="3.4"/><circle cx="163.2" cy="142.6" r="3.4"/><circle cx="192.3" cy="346.1" r="3.4"/><circle cx="221.3" cy="357.4" r="3.4"/><circle cx="250.4" cy="334.8" r="3.4"/><circle cx="279.5" cy="334.8" r="3.4"/><circle cx="308.5" cy="278.3" r="3.4"/><circle cx="337.6" cy="368.7" r="3.4"/><circle cx="366.7" cy="380.0" r="3.4"/><circle cx="395.7" cy="357.4" r="3.4"/><circle cx="424.8" cy="380.0" r="3.4"/><circle cx="453.9" cy="346.1" r="3.4"/><circle cx="482.9" cy="368.7" r="3.4"/><circle cx="512.0" cy="357.4" r="3.4"/><circle cx="541.1" cy="357.4" r="3.4"/><circle cx="570.1" cy="334.8" r="3.4"/><circle cx="599.2" cy="176.5" r="3.4"/><circle cx="628.3" cy="300.9" r="3.4"/><circle cx="657.3" cy="334.8" r="3.4"/><circle cx="686.4" cy="334.8" r="3.4"/><circle cx="715.5" cy="368.7" r="3.4"/><circle cx="744.5" cy="187.8" r="3.4"/><circle cx="773.6" cy="380.0" r="3.4"/><circle cx="802.7" cy="244.3" r="3.4"/><circle cx="831.7" cy="300.9" r="3.4"/><circle cx="860.8" cy="120.0" r="3.4"/><circle cx="889.9" cy="278.3" r="3.4"/><circle cx="918.9" cy="334.8" r="3.4"/><circle cx="948.0" cy="380.0" r="3.4"/></g>
    </g>

    <text x="76.0" y="404" font-size="17" letter-spacing="1" text-anchor="start" opacity=".8">AUG 4</text>
    <text x="512.0" y="404" font-size="17" letter-spacing="1" text-anchor="middle" opacity=".8">AUG 19</text>
    <text x="948.0" y="404" font-size="17" letter-spacing="1" text-anchor="end" opacity=".8">SEP 3</text>

    <text x="52" y="440" font-size="17" letter-spacing="1" opacity=".8">31 DAYS &#183; 214 CONTRIBUTIONS &#183; PEAK 23 ON AUG 31 &#183; AVG 6.9/DAY</text>
  </g>
</svg>
